PathFileType	4	(X/Y/Z)	Patient4_TMGait_0pt3_03_right_08.trc.trc
DataRate	CameraRate	NumFrames	NumMarkers	Units	OrigDataRate	OrigDataStartFrame	OrigNumFrames
53.435114503817	53.435114503817	4	33	mm	53.435114503817	71	       141
Frame#	Time	Sacral			L.Shoulder			Chest			R.Shoulder			Neck			R.ASIS			L.ASIS			R.Thigh.Superior			R.Thigh.Lateral			R.Thigh.Inferior			R.Patella			L.Thigh.Superior			L.Thigh.Lateral			L.Thigh.Inferior			L.Patella			L.Shank.Superior			L.Shank.Lateral			L.Shank.Inferior			R.Shank.Superior			R.Shank.Lateral			R.Shank.Inferior			R.Heel			R.Midfoot.Superior			R.Midfoot.Lateral			R.Toe			L.Heel			L.Midfoot.Lateral			L.Midfoot.Superior			L.Toe			L.Elbow			L.Wrist			R.Elbow			R.Wrist			
		X1	Y1	Z1	X2	Y2	Z2	X3	Y3	Z3	X4	Y4	Z4	X5	Y5	Z5	X6	Y6	Z6	X7	Y7	Z7	X8	Y8	Z8	X9	Y9	Z9	X10	Y10	Z10	X11	Y11	Z11	X12	Y12	Z12	X13	Y13	Z13	X14	Y14	Z14	X15	Y15	Z15	X16	Y16	Z16	X17	Y17	Z17	X18	Y18	Z18	X19	Y19	Z19	X20	Y20	Z20	X21	Y21	Z21	X22	Y22	Z22	X23	Y23	Z23	X24	Y24	Z24	X25	Y25	Z25	X26	Y26	Z26	X27	Y27	Z27	X28	Y28	Z28	X29	Y29	Z29	X30	Y30	Z30	X31	Y31	Z31	X32	Y32	Z32	X33	Y33	Z33	

71	16.490000000000	760.410236925562	1002.358400776334	588.036557651428	905.780323425149	1430.019034802822	378.293432712041	1040.692025083516	1356.367068521478	511.178888801258	1002.054656806798	1433.203154860173	697.729364940315	924.077199059778	1488.048804060029	535.309362067689	1003.739752778392	928.610692958768	657.569830974326	942.427821791562	959.043183298442	390.926764390373	1009.272687897131	720.690747666540	617.799120819435	920.589776514077	615.488426499793	682.475895333003	977.788306992242	559.950591799576	591.809464548823	964.057733540094	469.551247576497	594.781407329771	1013.404595703657	763.991459514402	410.548736920922	945.941918954038	638.039316065585	340.673134870272	1046.700810414390	572.833881401652	397.118086993369	1068.611778960045	512.873068617532	395.406770290161	1056.060647695645	444.009248712808	382.573531080710	999.607972457538	311.883482099010	326.731841770987	1093.663296419058	217.362903099364	379.148117219494	918.780816745774	386.444077926200	600.708043250680	833.533020114096	292.824175193200	662.236966075864	853.189770833694	196.780725021439	591.785343228961	694.607214682835	44.360637447948	556.627264103488	865.649134139842	94.905730122795	596.397564186914	775.455602350952	36.987693238082	633.355420274456	984.038762331399	40.670722159588	629.345173253261	1019.287237487907	36.363911830838	411.000160496976	1095.087744794610	44.315563982885	332.858195062081	1163.419390047734	122.356000203137	357.738148862186	1298.145042424982	96.511842966899	333.885347714727	734.627122990209	1120.043524425399	306.376740566054	684.088287470337	865.180685997262	347.000772950950	1176.636252261881	1142.112385796059	805.883466709743	1422.809115008673	1181.569816911671	748.194346966418	
72	16.508714285714	761.050355909707	1001.197298582639	586.214859804341	905.861728983954	1428.524173228585	375.318181322360	1040.978651401995	1355.163647427651	508.289484364185	1002.295018485113	1432.385206278936	694.613575471966	924.152491402300	1486.917769049895	532.248049266662	1004.487375250013	927.691306781965	655.984549809436	943.007536633303	957.349442678426	389.318594113245	1009.272552830371	719.506074996698	616.759572285042	919.613062350307	614.753700312117	681.372792128178	976.508013369430	558.715307974865	591.029465376416	961.980936190052	468.193011614680	594.059550192836	1013.361278056785	761.436412929992	408.881437977858	944.038496126420	635.607953740685	340.206254332579	1044.766662133617	570.418760425650	396.384086774756	1065.925489590404	510.406053980506	395.077024131178	1053.548691412274	441.425415519834	382.306312682952	996.395481932594	309.390843321052	327.355034235029	1090.286435758570	214.805123211239	379.754360419220	915.975396127470	385.469587535131	600.026871299268	829.948297633235	292.685560841912	661.885964872091	848.617745990867	196.347687015993	591.545012136153	689.000636540558	44.545874658569	556.665259024359	860.049433786246	94.830372848182	596.325352224494	769.852346623771	36.998119030832	633.358904497778	978.423082410808	40.543421625323	629.388892244351	1014.444997193156	35.900111273618	412.355699580612	1089.898975373216	42.697960622106	333.778956236341	1160.002856007297	118.706385233015	358.893064622023	1293.939557978358	89.897726377876	334.149003071610	735.701485248042	1117.865587970530	304.827106600766	685.087209759678	863.114069319933	346.786893215088	1180.846690076426	1144.187900006479	801.908014317767	1425.284065894334	1189.818559436176	742.095693162601	
73	16.527428571429	761.839888449088	1000.055368875499	584.218064995065	906.075369953677	1426.967164547973	372.128246632351	1041.398260035542	1353.990861767122	505.219814755880	1002.635022960956	1431.611180369496	691.329012261505	924.340311021584	1485.802381237439	528.946043887627	1005.395087844605	926.755222832856	654.209702124483	943.781074292699	955.774012457990	387.531164396292	1009.507664657291	718.305568287703	615.513882507014	918.916266346632	613.992810745720	680.062263953810	975.520148844860	557.460533741748	590.025553285424	960.239644239289	466.781318806759	593.131071246504	1013.881496500325	759.338204235786	407.253727215525	943.266310423904	633.577757682469	339.531966071148	1043.944171896018	568.544495217303	395.625980922767	1064.344869076407	508.265967730992	394.648711888648	1052.063166145323	439.042174700575	381.924351246462	993.885665226008	307.284651094018	327.623556831506	1087.137682764977	212.259369501019	380.164791538287	913.392934117694	384.464026380967	599.175055467371	826.554147685137	292.609726075387	661.415410981951	844.160632265461	195.948637077705	591.245371874706	683.414696835608	44.846438873868	556.724596237272	854.517699581458	94.815524335246	596.304411343330	764.275170055024	37.068351640472	633.372255534792	972.827325160701	40.394027861442	629.436169425068	1009.020909845607	35.748154809800	413.366669138208	1084.269710446495	41.093409398884	334.465636420728	1156.409728837704	114.817983103333	359.904034604728	1289.466545275890	82.545458924114	334.502504721621	737.576750303867	1115.194520423670	302.762208576579	687.312479155894	860.438850997581	345.558076026244	1184.212790282585	1145.763342521773	798.101848779491	1427.103631271816	1196.474873425364	736.531030991533	
74	16.546142857143	762.777776108337	999.027625911183	582.034161246727	906.414674346876	1425.449566705942	368.769716747289	1041.957033553946	1352.927403556034	501.984568378415	1003.119477307461	1430.952883764541	687.901355742451	924.658070077603	1484.780162234882	525.450652476709	1006.437319493961	925.858149997828	652.223439050777	944.738510317058	954.428630797073	385.544969880618	1009.862060583827	717.136630141434	614.040004245937	918.379575027905	613.279957448867	678.561947209323	974.682417267697	556.243150678102	588.812364322241	958.682120814954	465.392806321159	592.025278871302	1014.969506307504	757.822003035319	405.644630555007	943.668825010867	632.048854685782	338.600079201043	1044.271964852776	567.295962095904	394.791583161710	1063.906359219557	506.539264069285	394.094780118282	1051.653390216075	436.966628129722	381.411780153888	992.225131401839	305.654338622189	327.477255807784	1084.367157072101	209.864675904631	380.369554880663	910.926948782273	383.501723909915	598.188418356677	823.265009662384	292.647359316082	660.850185983343	839.779686272417	195.639651689905	590.911304245383	677.854867723161	45.307940209329	556.813621321367	849.064097754777	94.869121821309	596.340838900769	758.728170284639	37.225656181165	633.401136455220	967.253043916153	40.218893290634	629.486277486144	1003.343703144822	35.867595924800	414.019083409571	1078.521019792830	39.604799590598	334.908271934914	1152.774880509062	110.976512987447	360.725204003775	1284.922276728456	75.065283298821	334.921631092936	740.126458636546	1112.231335265455	300.183905792924	690.658130551256	857.342812862987	343.299850941518	1186.821396994283	1146.885304359687	794.471964798915	1428.421396846386	1201.572997814324	731.465397620392	
